<mxfile host="app.diagrams.net" agent="Mozilla/5.0 (X11; Linux x86_64; rv:136.0) Gecko/20100101 Firefox/136.0" version="26.2.5">
  <diagram name="Page-1" id="DHj4D6ZSN1tcyYO8UwVM">
    <mxGraphModel dx="1088" dy="550" grid="1" gridSize="10" guides="1" tooltips="1" connect="1" arrows="1" fold="1" page="1" pageScale="1" pageWidth="800" pageHeight="450" math="0" shadow="0">
      <root>
        <mxCell id="0" />
        <mxCell id="1" parent="0" />
        <mxCell id="F-0sIi18hf1uoO0KOUDm-18" value="" style="rounded=1;whiteSpace=wrap;html=1;strokeColor=#0066CC;dashed=1;dashPattern=8 8;" vertex="1" parent="1">
          <mxGeometry x="180" y="40" width="510" height="340" as="geometry" />
        </mxCell>
        <mxCell id="F-0sIi18hf1uoO0KOUDm-3" value="" style="edgeStyle=orthogonalEdgeStyle;rounded=0;orthogonalLoop=1;jettySize=auto;html=1;" edge="1" parent="1" source="F-0sIi18hf1uoO0KOUDm-1" target="F-0sIi18hf1uoO0KOUDm-2">
          <mxGeometry relative="1" as="geometry" />
        </mxCell>
        <mxCell id="F-0sIi18hf1uoO0KOUDm-1" value="Dataset of N observations" style="whiteSpace=wrap;html=1;" vertex="1" parent="1">
          <mxGeometry x="20" y="70" width="120" height="60" as="geometry" />
        </mxCell>
        <mxCell id="F-0sIi18hf1uoO0KOUDm-5" value="" style="edgeStyle=orthogonalEdgeStyle;rounded=0;orthogonalLoop=1;jettySize=auto;html=1;" edge="1" parent="1" source="F-0sIi18hf1uoO0KOUDm-2" target="F-0sIi18hf1uoO0KOUDm-4">
          <mxGeometry relative="1" as="geometry" />
        </mxCell>
        <mxCell id="F-0sIi18hf1uoO0KOUDm-2" value="Search for observation with highest humidity" style="rounded=1;whiteSpace=wrap;html=1;" vertex="1" parent="1">
          <mxGeometry x="230" y="80" width="120" height="60" as="geometry" />
        </mxCell>
        <mxCell id="F-0sIi18hf1uoO0KOUDm-7" value="" style="edgeStyle=orthogonalEdgeStyle;rounded=0;orthogonalLoop=1;jettySize=auto;html=1;" edge="1" parent="1" source="F-0sIi18hf1uoO0KOUDm-4" target="F-0sIi18hf1uoO0KOUDm-6">
          <mxGeometry relative="1" as="geometry" />
        </mxCell>
        <mxCell id="F-0sIi18hf1uoO0KOUDm-4" value="Download of GDAS atmospheric parameters closest to selected observation" style="rounded=1;whiteSpace=wrap;html=1;" vertex="1" parent="1">
          <mxGeometry x="380" y="80" width="140" height="60" as="geometry" />
        </mxCell>
        <mxCell id="F-0sIi18hf1uoO0KOUDm-9" value="" style="edgeStyle=orthogonalEdgeStyle;rounded=0;orthogonalLoop=1;jettySize=auto;html=1;" edge="1" parent="1" source="F-0sIi18hf1uoO0KOUDm-6" target="F-0sIi18hf1uoO0KOUDm-8">
          <mxGeometry relative="1" as="geometry" />
        </mxCell>
        <mxCell id="F-0sIi18hf1uoO0KOUDm-6" value="Generation of &lt;i&gt;Telfit &lt;/i&gt;transmittance profile" style="rounded=1;whiteSpace=wrap;html=1;" vertex="1" parent="1">
          <mxGeometry x="550" y="80" width="120" height="60" as="geometry" />
        </mxCell>
        <mxCell id="F-0sIi18hf1uoO0KOUDm-11" value="" style="edgeStyle=orthogonalEdgeStyle;rounded=0;orthogonalLoop=1;jettySize=auto;html=1;" edge="1" parent="1" source="F-0sIi18hf1uoO0KOUDm-8" target="F-0sIi18hf1uoO0KOUDm-10">
          <mxGeometry relative="1" as="geometry">
            <Array as="points">
              <mxPoint x="530" y="250" />
              <mxPoint x="530" y="300" />
            </Array>
          </mxGeometry>
        </mxCell>
        <mxCell id="F-0sIi18hf1uoO0KOUDm-8" value="Construct binary mask from features deeper than &lt;i&gt;X &lt;/i&gt;%" style="rounded=1;whiteSpace=wrap;html=1;" vertex="1" parent="1">
          <mxGeometry x="550" y="220" width="120" height="60" as="geometry" />
        </mxCell>
        <mxCell id="F-0sIi18hf1uoO0KOUDm-10" value="" style="rounded=1;whiteSpace=wrap;html=1;" vertex="1" parent="1">
          <mxGeometry x="210" y="200" width="290" height="170" as="geometry" />
        </mxCell>
        <mxCell id="F-0sIi18hf1uoO0KOUDm-13" value="&quot;Extend&quot; each flagged region by the maximum yearly BERV variation" style="rounded=1;whiteSpace=wrap;html=1;" vertex="1" parent="1">
          <mxGeometry x="235" y="240" width="190" height="50" as="geometry" />
        </mxCell>
        <mxCell id="F-0sIi18hf1uoO0KOUDm-14" value="Shift the binary mask with every BERV in the dataset and add new locations to the mask" style="rounded=1;whiteSpace=wrap;html=1;" vertex="1" parent="1">
          <mxGeometry x="235" y="310" width="190" height="50" as="geometry" />
        </mxCell>
        <mxCell id="F-0sIi18hf1uoO0KOUDm-17" value="" style="group" vertex="1" connectable="0" parent="1">
          <mxGeometry x="445" y="265" width="55" height="70" as="geometry" />
        </mxCell>
        <mxCell id="F-0sIi18hf1uoO0KOUDm-15" style="edgeStyle=orthogonalEdgeStyle;rounded=0;orthogonalLoop=1;jettySize=auto;html=1;entryX=1;entryY=0.5;entryDx=0;entryDy=0;strokeColor=#66B2FF;" edge="1" parent="F-0sIi18hf1uoO0KOUDm-17" target="F-0sIi18hf1uoO0KOUDm-13">
          <mxGeometry relative="1" as="geometry">
            <mxPoint x="55" y="35" as="sourcePoint" />
            <Array as="points">
              <mxPoint x="55" y="35" />
              <mxPoint y="35" />
              <mxPoint />
            </Array>
          </mxGeometry>
        </mxCell>
        <mxCell id="F-0sIi18hf1uoO0KOUDm-16" style="edgeStyle=orthogonalEdgeStyle;rounded=0;orthogonalLoop=1;jettySize=auto;html=1;fillColor=#3333FF;strokeColor=#66B2FF;" edge="1" parent="F-0sIi18hf1uoO0KOUDm-17" target="F-0sIi18hf1uoO0KOUDm-14">
          <mxGeometry relative="1" as="geometry">
            <mxPoint x="55" y="35" as="sourcePoint" />
            <Array as="points">
              <mxPoint x="55" y="35" />
              <mxPoint y="35" />
              <mxPoint y="70" />
            </Array>
          </mxGeometry>
        </mxCell>
        <mxCell id="F-0sIi18hf1uoO0KOUDm-19" value="&lt;span style=&quot;color: rgb(0, 102, 204);&quot;&gt;Construction of the telluric mask&lt;/span&gt;" style="text;html=1;align=center;verticalAlign=middle;resizable=0;points=[];autosize=1;strokeColor=none;fillColor=none;" vertex="1" parent="1">
          <mxGeometry x="205" y="40" width="190" height="30" as="geometry" />
        </mxCell>
        <mxCell id="F-0sIi18hf1uoO0KOUDm-21" value="&lt;span style=&quot;color: rgb(102, 178, 255);&quot;&gt;Accounting for barycentric motion (BERV)&lt;/span&gt;" style="text;html=1;align=center;verticalAlign=middle;resizable=0;points=[];autosize=1;strokeColor=none;fillColor=none;" vertex="1" parent="1">
          <mxGeometry x="220" y="200" width="240" height="30" as="geometry" />
        </mxCell>
        <mxCell id="F-0sIi18hf1uoO0KOUDm-23" style="edgeStyle=orthogonalEdgeStyle;rounded=0;orthogonalLoop=1;jettySize=auto;html=1;entryX=0.5;entryY=1;entryDx=0;entryDy=0;" edge="1" parent="1" source="F-0sIi18hf1uoO0KOUDm-22" target="F-0sIi18hf1uoO0KOUDm-1">
          <mxGeometry relative="1" as="geometry" />
        </mxCell>
        <mxCell id="F-0sIi18hf1uoO0KOUDm-22" value="Addition of flagged regions to pixel-wise mask" style="rounded=1;whiteSpace=wrap;html=1;" vertex="1" parent="1">
          <mxGeometry x="20" y="255" width="120" height="60" as="geometry" />
        </mxCell>
        <mxCell id="F-0sIi18hf1uoO0KOUDm-24" style="edgeStyle=orthogonalEdgeStyle;rounded=0;orthogonalLoop=1;jettySize=auto;html=1;entryX=1;entryY=0.5;entryDx=0;entryDy=0;" edge="1" parent="1" source="F-0sIi18hf1uoO0KOUDm-10" target="F-0sIi18hf1uoO0KOUDm-22">
          <mxGeometry relative="1" as="geometry" />
        </mxCell>
      </root>
    </mxGraphModel>
  </diagram>
</mxfile>
